# xmcd
#
# Track frame offsets:
#	150
#	15053
#	34688
#	50928
#	68249
#	86057
#	101019
#	124655
#	150896
#
# Disc length: 2518 seconds
#
# Revision: 0
# Processed by: cddbd v1.5.1PL2 Copyright (c) Steve Scherf et al.
# Submitted via: dBpowerAMP V4.0
#
DISCID=6609d409
DTITLE=J. Teixi Band - Crónicas (Hot club blues)
DYEAR=2004
DGENRE=R&B
TTITLE0=Calles de miel
TTITLE1=Necesitas algo
TTITLE2=Eres la lluvia
TTITLE3=No pasa más
TTITLE4=De qué vas
TTITLE5=Sentado en la esquina
TTITLE6=Atrapado
TTITLE7=Tengo un compañero
TTITLE8=DATA
EXTD=
EXTT0=
EXTT1=
EXTT2=
EXTT3=
EXTT4=
EXTT5=
EXTT6=
EXTT7=
EXTT8=
PLAYORDER=
